# xmcd
# 
# Track frame offsets:
#     150
#     14737
#     33862
#     57750
#     84037
#     90140
#     111012
#     135137
#     163130
#     169452
#     189845
# 
# Disc length: 2847
# 
# Revision: 2
# Processed by: cddbd v1.5.2PL0 Copyright (c) Steve Scherf et al.
# Submitted via: fre:ac v1.0.31
# 
DISCID=750b1d0b
DTITLE=貴水博之 - SUN
DYEAR=1995
DGENRE=JPop
TTITLE0=Get SUN
TTITLE1=教えて
TTITLE2=目を覚ませ
TTITLE3=I&I
TTITLE4=North Pole,the
TTITLE5=Vampire
TTITLE6=やさしい罠
TTITLE7=踊ろ!
TTITLE8=South Pole,the
TTITLE9=EDEN
TTITLE10=Mountain
EXTD=
EXTT0=
EXTT1=
EXTT2=
EXTT3=
EXTT4=
EXTT5=
EXTT6=
EXTT7=
EXTT8=
EXTT9=
EXTT10=
PLAYORDER=
